<svg xmlns="http://www.w3.org/2000/svg" width="16" height="16" viewBox="0 0 16 16" fill="none">
  <g clip-path="url(#clip0_650_34)">
    <path d="M13.2385 3.62074C12.9358 3.31793 12.5765 3.07772 12.1809 2.91383C11.7854 2.74994 11.3615 2.66558 10.9333 2.66558C10.5052 2.66558 10.0812 2.74994 9.68571 2.91383C9.29018 3.07772 8.93082 3.31793 8.62815 3.62074L8 4.24889L7.37185 3.62074C6.76048 3.00937 5.93128 2.6659 5.06666 2.6659C4.20205 2.6659 3.37285 3.00937 2.76148 3.62074C2.15011 4.23211 1.80664 5.06131 1.80664 5.92593C1.80664 6.79054 2.15011 7.61974 2.76148 8.23111L3.38963 8.85926L8 13.4696L12.6104 8.85926L13.2385 8.23111C13.5413 7.92844 13.7815 7.56907 13.9454 7.17354C14.1093 6.77801 14.1937 6.35407 14.1937 5.92593C14.1937 5.49778 14.1093 5.07384 13.9454 4.67831C13.7815 4.28278 13.5413 3.92341 13.2385 3.62074V3.62074Z" fill="#22034A" stroke="#22034A" stroke-width="2" stroke-linecap="round" stroke-linejoin="round"/>
  </g>
  <defs>
    <clipPath id="clip0_650_34">
      <rect width="14.2222" height="14.2222" fill="white" transform="translate(0.888916 0.888889)"/>
    </clipPath>
  </defs>
</svg>